<svg xmlns:mydata="http://www.w3.org/2000/svg" mydata:contrastcolor="ffffff" mydata:template="Contrast" mydata:presentation="2.5" mydata:layouttype="undefined" mydata:specialfontid="undefined" mydata:id1="743" mydata:id2="309" mydata:companyname="Zap Launcher" mydata:companytagline="Converse sem limites" version="1.1" xmlns="http://www.w3.org/2000/svg" xmlns:xlink="http://www.w3.org/1999/xlink" viewBox="0 0 550 470"><g fill="none" fill-rule="none" stroke="none" stroke-width="1" stroke-linecap="butt" stroke-linejoin="miter" stroke-miterlimit="10" stroke-dasharray="" stroke-dashoffset="0" font-family="none" font-weight="none" font-size="none" text-anchor="none" style="mix-blend-mode: normal"><g data-paper-data="{&quot;isGlobalGroup&quot;:true,&quot;bounds&quot;:{&quot;x&quot;:134.44863292221538,&quot;y&quot;:115,&quot;width&quot;:281.10273415556924,&quot;height&quot;:240}}"><g data-paper-data="{&quot;textHeightFactor&quot;:0.3582321224857519,&quot;isSecondaryText&quot;:true}" fill="#f6be00" fill-rule="evenodd"><path d="M134.44863,353.58237c0,0.78301 0.63472,1.41763 1.41763,1.41763h278.26747c0.78301,0 1.41763,-0.63463 1.41763,-1.41763v-30.19316c0,-0.78296 -0.63463,-1.41763 -1.41763,-1.41763h-278.26747c-0.78291,0 -1.41763,0.63467 -1.41763,1.41763zM184.0346,344.25528c0.27086,-0.56327 0.40629,-2.49189 0.40629,-5.78584l-0.04877,-4.2581l0.01626,-0.60108c0,-0.69365 -0.18963,-1.04035 -0.56885,-1.04035c-0.19502,0 -0.35214,0.04064 -0.47132,0.12192c-0.11918,0.08123 -0.23835,0.23022 -0.35753,0.44693l-0.30881,8.09365c-1.53857,-1.9828 -3.10424,-4.10641 -4.697,-6.37085c-0.46588,-0.67196 -0.82615,-1.17853 -1.0808,-1.51966c-0.25461,-0.34132 -0.46319,-0.56342 -0.6257,-0.66634c-0.16256,-0.10292 -0.30881,-0.10566 -0.43881,-0.00813c-0.13004,0.09749 -0.31424,0.25461 -0.55259,0.47132c0.02164,0.78008 0.03251,1.77431 0.03251,2.98214c0,1.2083 -0.04338,2.64672 -0.13004,4.31528c-0.03251,0.6392 -0.06772,1.24594 -0.10561,1.82024c-0.03795,0.57414 -0.07046,0.98337 -0.09753,1.2272c-0.02708,0.24383 -0.04064,0.42246 -0.04064,0.53634c0,0.11341 0.04877,0.19469 0.1463,0.24383c0.09749,0.04867 0.26812,0.07277 0.51191,0.07277c0.24383,0 0.46862,-0.09734 0.67451,-0.29251c0.04333,-0.75843 0.06502,-1.69029 0.06502,-2.7951c0,-2.89292 0.10835,-4.82185 0.32502,-5.78631c0.45511,0.71543 0.95619,1.43606 1.50335,2.16189c0.54721,0.72583 1.09706,1.45733 1.64965,2.19403c1.40856,1.86372 2.4108,3.31018 3.00671,4.33938zM324.75991,337.10426l-0.03261,-4.04678l1.30044,0.04877l-0.14649,9.52395l8.56487,0.24383c0.17342,0.05434 0.26037,0.14649 0.26037,0.27644c0,0.12979 -0.08128,0.26526 -0.24383,0.40639c-0.31424,0.28164 -0.67196,0.42246 -1.07268,0.42246c-0.09782,0 -0.20036,-0.01087 -0.30904,-0.03261l-8.72743,-0.08128c0.27077,-1.00747 0.40639,-3.2615 0.40639,-6.76117zM298.15989,342.67887l-0.06521,-1.18609c0,-0.26037 0.02741,-0.52594 0.08128,-0.79671c0.01087,-0.24903 0.03261,-0.5524 0.06521,-0.91012c0.21643,-2.92552 0.45506,-4.64795 0.71496,-5.16822l2.99074,6.35478c0.20556,0.67196 0.45506,1.08874 0.74757,1.2513c0.24903,0.15169 0.44939,0.09215 0.60108,-0.17862c1.14876,-2.23183 2.02627,-3.81958 2.63302,-4.76183c0.28164,-0.44466 0.50137,-0.73953 0.65825,-0.88602c0.15688,-0.14602 0.2736,-0.19752 0.34921,-0.15452c0.07608,0.04347 0.11955,0.15736 0.13042,0.34165c0.01087,0.18382 0.01607,0.38465 0.01607,0.60108c0.02174,0.16256 0.05434,0.40355 0.09734,0.72347c0.04347,0.31944 0.0923,0.68503 0.14649,1.09678c0.05434,0.41206 0.10821,0.84255 0.16256,1.29241c0.05434,0.44939 0.10821,0.87752 0.16256,1.2839c0.05387,0.40639 0.10018,0.77167 0.13798,1.09678c0.0378,0.32511 0.07608,0.58785 0.11388,0.7882c0.0378,0.20083 0.14365,0.36858 0.31708,0.50421c0.17295,0.13515 0.34638,0.20272 0.5198,0.20272c0.17342,0 0.30904,-0.06757 0.40639,-0.20272c0.09734,-0.13562 0.14649,-0.27644 0.14649,-0.42293c0,-0.14602 -0.04064,-0.39268 -0.12192,-0.73953c-0.08128,-0.34638 -0.198,-1.19696 -0.34968,-2.55127c-0.06474,-0.56375 -0.13279,-1.14072 -0.20319,-1.73093c-0.07041,-0.59068 -0.15169,-1.15679 -0.24383,-1.69833c-0.09215,-0.54201 -0.20036,-1.03771 -0.32511,-1.4871c-0.12428,-0.44986 -0.2788,-0.83168 -0.46309,-1.14592c-0.18398,-0.3144 -0.44939,-0.4716 -0.79624,-0.4716c-0.11908,0 -0.29251,0.08128 -0.52027,0.24383l-3.25016,5.65589c-0.18429,-0.12995 -0.37378,-0.36811 -0.56894,-0.71496c-0.19516,-0.34685 -0.58501,-1.17002 -1.17002,-2.47046c-0.82365,-1.82024 -1.62555,-2.92552 -2.40573,-3.31547c-0.46593,0 -0.78017,0.10292 -0.94273,0.30881c-0.08648,0.10854 -0.15169,0.24936 -0.19469,0.42279c-0.04347,0.17295 -0.07608,0.34638 -0.09782,0.5198c-0.02174,0.17342 -0.05671,0.44136 -0.10538,0.80474c-0.04867,0.36291 -0.10585,0.80994 -0.17059,1.34061c-0.06521,0.53114 -0.2169,1.71487 -0.45506,3.55117c-0.23864,1.83678 -0.35772,2.88489 -0.35772,3.14479c0,0.31424 0.17862,0.4716 0.53634,0.4716c0.09734,0.01087 0.2358,0.01607 0.41442,0.01607c0.17862,0 0.33031,-0.06757 0.45506,-0.20319c0.12475,-0.13515 0.18949,-0.28967 0.19516,-0.46309c0.00536,-0.17327 0.00803,-0.29251 0.00803,-0.35772zM346.43507,341.49278l0.06521,1.18609c0,0.06521 -0.00268,0.18445 -0.00803,0.35772c-0.00567,0.17342 -0.07041,0.32795 -0.19516,0.46309c-0.12475,0.13562 -0.27644,0.20319 -0.45506,0.20319c-0.17862,0 -0.31708,-0.0052 -0.41442,-0.01607c-0.35772,0 -0.53634,-0.15736 -0.53634,-0.4716c0,-0.2599 0.11908,-1.308 0.35772,-3.14479c0.23816,-1.83631 0.38985,-3.02003 0.45506,-3.55117c0.06474,-0.53067 0.12192,-0.9777 0.17059,-1.34061c0.04867,-0.36339 0.08411,-0.63132 0.10538,-0.80474c0.02174,-0.17342 0.05434,-0.34685 0.09782,-0.5198c0.04347,-0.17342 0.10821,-0.31424 0.19516,-0.42279c0.16208,-0.20589 0.47633,-0.30881 0.94225,-0.30881c0.78017,0.38994 1.58208,1.49523 2.40573,3.31547c0.58501,1.30044 0.97486,2.12362 1.17002,2.47046c0.19516,0.34685 0.38465,0.58501 0.56894,0.71496l3.25016,-5.65589c0.22777,-0.16256 0.40119,-0.24383 0.52027,-0.24383c0.34685,0 0.61226,0.1572 0.79624,0.4716c0.18429,0.31424 0.33881,0.69606 0.46357,1.14592c0.12428,0.44939 0.23296,0.94509 0.32464,1.4871c0.09215,0.54154 0.17342,1.10765 0.24383,1.69833c0.07041,0.59021 0.13846,1.16719 0.20319,1.73093c0.15169,1.35431 0.26841,2.20489 0.34968,2.55127c0.08128,0.34685 0.12192,0.59352 0.12192,0.73953c0,0.14649 -0.04867,0.28731 -0.14649,0.42293c-0.09734,0.13515 -0.23296,0.20272 -0.40639,0.20272c-0.17342,0 -0.34638,-0.06757 -0.5198,-0.20272c-0.17342,-0.13562 -0.27927,-0.30337 -0.31708,-0.50421c-0.0378,-0.20036 -0.07561,-0.46309 -0.11388,-0.7882c-0.0378,-0.32511 -0.08364,-0.69039 -0.13798,-1.09678c-0.05434,-0.40639 -0.10821,-0.83451 -0.16256,-1.2839c-0.05434,-0.44986 -0.10821,-0.88035 -0.16256,-1.29241c-0.05419,-0.41174 -0.10286,-0.77734 -0.14602,-1.09678c-0.04347,-0.31991 -0.07608,-0.56091 -0.09782,-0.72347c0,-0.21643 -0.0052,-0.41726 -0.01607,-0.60108c-0.01087,-0.18429 -0.05434,-0.29818 -0.12995,-0.34165c-0.07608,-0.043 -0.19233,0.00851 -0.34968,0.15452c-0.15688,0.14649 -0.37662,0.44136 -0.65825,0.88602c-0.60675,0.94225 -1.48426,2.53 -2.63302,4.76183c-0.15169,0.27077 -0.35205,0.33031 -0.60108,0.17862c-0.29251,-0.16256 -0.54201,-0.57934 -0.74757,-1.2513l-2.99074,-6.35478c-0.2599,0.52027 -0.49806,2.2427 -0.71496,5.16822c-0.03261,0.35772 -0.05434,0.66109 -0.06521,0.91012c-0.05387,0.27077 -0.08128,0.53634 -0.08128,0.79671zM192.70254,343.9467c-0.29251,-0.78001 -0.83423,-1.942 -1.62518,-3.48596c-0.79099,-1.54428 -1.31646,-2.57064 -1.5765,-3.08005c-0.57428,-1.18089 -0.8614,-1.87459 -0.8614,-2.08014c0,-0.14129 0.2763,-0.31991 0.82889,-0.53634c0.37922,0.70409 0.73405,1.40582 1.06455,2.10471c0.33045,0.69842 0.65821,1.35668 0.98327,1.97429c0.7693,1.50647 1.3976,2.54654 1.88526,3.12069c0.17327,-0.17327 0.56327,-0.91012 1.17002,-2.21056l1.33305,-2.81164c0.71512,-1.51687 1.17553,-2.50827 1.38125,-2.9742c0.37945,-0.45506 0.69889,-0.6825 0.95879,-0.6825c0.26037,0 0.39032,0.22744 0.39032,0.6825l-4.61582,10.12522c-0.18429,0.11955 -0.41962,0.17909 -0.70693,0.17909c-0.28731,0 -0.4905,-0.10821 -0.60958,-0.32511zM153.17643,335.18667c-0.70428,-0.6937 -1.48441,-1.04007 -2.34037,-1.04007c-0.81262,0 -1.59273,0.30873 -2.34035,0.92619c-0.94265,0.78017 -1.59275,1.78764 -1.95031,3.02287c-0.13002,0.44419 -0.19503,0.81278 -0.19503,1.10528c0,0.29251 0.01084,0.52027 0.03251,0.68283c0,1.07268 0.36297,1.89585 1.08892,2.46999c0.68261,0.53114 1.55483,0.79671 2.61665,0.79671c1.45189,-0.11955 2.8442,-0.67716 4.17692,-1.67423c0.3684,-0.28164 0.75845,-0.55256 1.17016,-0.81278c0.15169,0 0.30611,0.02174 0.46319,0.06521c0.15712,0.04347 0.23571,0.16775 0.23571,0.37378c-1.07268,0.93186 -1.97741,1.60382 -2.7142,2.0154c-1.36521,0.73685 -2.6004,1.10528 -3.70557,1.10528h-0.21128c-1.20269,0 -2.23201,-0.37394 -3.08798,-1.12182c-0.91014,-0.79057 -1.36522,-1.77677 -1.36522,-2.95766c0,-0.88838 0.15982,-1.73896 0.47945,-2.55174c0.31963,-0.81246 0.75845,-1.53026 1.31646,-2.15339c0.558,-0.62329 1.21894,-1.11899 1.98281,-1.4871c0.76387,-0.36858 1.58462,-0.55264 2.46228,-0.55264c0.7476,0 1.23517,0.10294 1.46272,0.30881c0.2817,0.24919 0.42255,0.74221 0.42255,1.47907zM217.5962,334.55251c0.59588,-0.57414 1.67375,-0.86098 3.2341,-0.86098c0.97533,0 1.79331,0.09734 2.45393,0.29251c0.66109,0.19469 1.15679,0.40072 1.4871,0.61762c0.33078,0.21643 0.4957,0.45506 0.4957,0.71496c0,0.59588 -0.69322,1.18656 -2.08014,1.77157c-0.20603,0.09734 -0.74473,0.29534 -1.61705,0.59304c-0.87232,0.29818 -1.46016,0.50137 -1.76354,0.60958c-0.66062,0.24903 -1.09961,0.44419 -1.31651,0.58501c0,0.05434 0.02174,0.10018 0.06521,0.13798c0.04347,0.03828 0.14602,0.10301 0.30857,0.19516c0.16256,0.09215 0.40639,0.2221 0.7315,0.39032c0.32511,0.16775 0.77497,0.40875 1.34912,0.72299c1.71203,0.93186 3.47273,1.92893 5.28211,2.99074c0.08648,0.06474 0.20036,0.15405 0.34118,0.26793c0.14082,0.11388 0.21123,0.23864 0.21123,0.37378c0,0.13562 -0.04347,0.23013 -0.12995,0.28447c-0.08648,0.05434 -0.18949,0.09498 -0.30904,0.12192c-0.11908,0.02694 -0.24336,0.04064 -0.37378,0.04064h-0.32464c-0.2169,0 -0.66912,-0.23296 -1.35715,-0.69889c-0.68803,-0.46593 -1.2839,-0.87232 -1.78811,-1.21869c-0.50373,-0.34685 -1.0155,-0.68283 -1.53577,-1.00794c-1.22436,-0.79104 -2.19403,-1.30564 -2.90899,-1.5438v3.72176c0,0.21643 -0.18429,0.32511 -0.55288,0.32511h-0.17862c-0.22777,0 -0.39552,-0.11388 -0.50373,-0.34165c-0.15169,-0.34638 -0.22777,-0.98573 -0.22777,-1.91759l0.04867,-3.2667c0,-1.60382 -0.07041,-3.012 -0.21123,-4.2255c0.11404,-0.195 0.23958,-0.30133 0.37662,-0.31897c0.17547,-0.02268 0.36969,0.09986 0.58265,0.36764c0.08648,0.10821 0.15688,0.20036 0.21123,0.27597zM210.26089,334.09745c-0.35772,-0.14082 -1.07835,-0.21123 -2.16189,-0.21123l-3.62395,0.08128c-0.75843,0 -1.27871,-0.043 -1.56034,-0.12995l-0.06521,10.36905c0.52011,-0.04316 1.53057,-0.12444 3.03137,-0.24383c1.50033,-0.11908 3.20433,-0.28164 5.11104,-0.48719c0.20603,0.14082 0.43899,0.0378 0.69889,-0.30904c0.13011,-0.195 0.19516,-0.40088 0.19516,-0.61762c-0.65022,0 -1.265,0.02457 -1.84481,0.07324c-0.57934,0.04867 -1.42992,0.12475 -2.55127,0.22729c-1.12182,0.10301 -2.2186,0.15452 -3.29127,0.15452l-0.09734,-2.66515l6.22436,-0.78017v-0.89405c-0.5524,0 -1.08874,0.02977 -1.60902,0.08931c-0.5198,0.05954 -1.25413,0.15452 -2.20206,0.28447c-0.94792,0.12995 -1.79047,0.19516 -2.52717,0.19516c0,-0.57414 -0.02174,-1.07268 -0.06521,-1.49513c-0.01087,-0.17342 -0.02174,-0.41726 -0.03261,-0.7315c-0.01087,-0.31424 0.07608,-0.90492 0.26037,-1.77157c0.58501,-0.13011 1.67927,-0.21139 3.28277,-0.24383c0.5743,-0.01071 1.11615,-0.0189 1.62555,-0.02457c0.50893,-0.0052 0.91012,-0.02977 1.20263,-0.07277zM250.90825,333.88623c1.08355,0 1.80418,0.07041 2.16189,0.21123v0.79671c-0.29298,0.043 -0.6937,0.06757 -1.2031,0.07277c-0.50909,0.00567 -1.05078,0.01386 -1.62508,0.02457c-1.60334,0.03261 -2.69776,0.11388 -3.28277,0.24383c-0.18429,0.86665 -0.27124,1.45733 -0.26037,1.77157c0.01087,0.31424 0.02174,0.55808 0.03261,0.7315c0.04347,0.42246 0.06521,0.92099 0.06521,1.49513c0.7367,0 1.57924,-0.06521 2.52717,-0.19516c0.94792,-0.12995 1.68226,-0.22493 2.20206,-0.28447c0.52027,-0.05954 1.05661,-0.08931 1.60902,-0.08931v0.89405l-6.22483,0.78017l0.09782,2.66515c1.07268,0 2.16945,-0.05151 3.2908,-0.15452c1.12182,-0.10254 1.9724,-0.17862 2.55174,-0.22729c0.57981,-0.04867 1.19459,-0.07324 1.84481,-0.07324c0,0.2169 -0.06521,0.42246 -0.19516,0.61762c-0.2599,0.34685 -0.49286,0.44986 -0.69889,0.30904c-1.90672,0.20556 -3.61071,0.36811 -5.11152,0.48719c-1.50049,0.1194 -2.51079,0.20067 -3.0309,0.24383l0.06521,-10.36905c0.28164,0.08695 0.80144,0.12995 1.55987,0.12995zM288.51667,333.88623c1.08355,0 1.80418,0.07041 2.16142,0.21123v0.79671c-0.29251,0.043 -0.69322,0.06757 -1.20263,0.07277c-0.50909,0.00567 -1.05078,0.01386 -1.62508,0.02457c-1.60382,0.03261 -2.69776,0.11388 -3.28324,0.24383c-0.18382,0.86665 -0.27077,1.45733 -0.2599,1.77157c0.01087,0.31424 0.02174,0.55808 0.03261,0.7315c0.04347,0.42246 0.06474,0.92099 0.06474,1.49513c0.73717,0 1.57924,-0.06521 2.52764,-0.19516c0.94792,-0.13011 1.68194,-0.22493 2.20206,-0.28447c0.52027,-0.05954 1.05661,-0.08931 1.60902,-0.08931v0.89405l-6.22483,0.78017l0.09782,2.66515c1.07268,0 2.16945,-0.05151 3.2908,-0.15452c1.12135,-0.10254 1.97193,-0.17862 2.55174,-0.22729c0.57981,-0.04867 1.19459,-0.07324 1.84481,-0.07324c0,0.21674 -0.06505,0.42261 -0.19516,0.61762c-0.2599,0.34685 -0.49286,0.44986 -0.69889,0.30904c-1.90672,0.20556 -3.61071,0.36811 -5.11152,0.48719c-1.50033,0.11955 -2.5111,0.20083 -3.0309,0.24383l0.06474,-10.36905c0.28211,0.08695 0.80191,0.12995 1.56034,0.12995zM389.39081,334.09745c-0.35772,-0.14082 -1.07835,-0.21123 -2.16189,-0.21123l-3.62395,0.08128c-0.75843,0 -1.27871,-0.043 -1.56034,-0.12995l-0.06521,10.36905c0.52027,-0.043 1.53057,-0.12428 3.03137,-0.24383c1.50033,-0.11908 3.20433,-0.28164 5.11152,-0.48719c0.20556,0.14082 0.43852,0.0378 0.69842,-0.30904c0.13011,-0.195 0.19516,-0.40088 0.19516,-0.61762c-0.65022,0 -1.265,0.02457 -1.84481,0.07324c-0.57934,0.04867 -1.42992,0.12475 -2.55127,0.22729c-1.12135,0.10301 -2.2186,0.15452 -3.29127,0.15452l-0.09734,-2.66515l6.22436,-0.78017v-0.89405c-0.5524,0 -1.08874,0.02977 -1.60902,0.08931c-0.5198,0.05954 -1.25413,0.15452 -2.20206,0.28447c-0.94792,0.12995 -1.79047,0.19516 -2.52717,0.19516c0,-0.57414 -0.02174,-1.07268 -0.06521,-1.49513c-0.01087,-0.17342 -0.02174,-0.41726 -0.03213,-0.7315c-0.01087,-0.31424 0.07561,-0.90492 0.2599,-1.77157c0.58501,-0.12995 1.67942,-0.21123 3.28277,-0.24383c0.57461,-0.01087 1.11615,-0.0189 1.62555,-0.02457c0.50893,-0.0052 0.91012,-0.02977 1.20263,-0.07277zM231.25369,342.63445v0.15027c0,0.20036 0.12475,0.39268 0.37378,0.57698c0.24903,0.18429 0.62281,0.37378 1.12135,0.56894c0.49838,0.195 1.02385,0.29251 1.57641,0.29251c0.66109,0 1.54947,-0.16823 2.66563,-0.50421c1.34344,-0.41159 2.39438,-0.91532 3.15282,-1.5112c0.67196,-0.53114 1.00794,-1.08355 1.00794,-1.65769c0,-0.20603 -0.05434,-0.42813 -0.16256,-0.66629c-1.95066,-0.56375 -3.59748,-1.02968 -4.94093,-1.39779c-0.5524,-0.15169 -1.00227,-0.2736 -1.34912,-0.36575c-0.34638,-0.09215 -0.64455,-0.17059 -0.89358,-0.2358c-0.2495,-0.06474 -0.37378,-0.12475 -0.37378,-0.17862c0.0104,-0.27077 0.11625,-0.50373 0.31661,-0.69889c0.20036,-0.19516 0.52547,-0.38465 0.97533,-0.56894c0.44939,-0.18429 1.58444,-0.41159 3.40469,-0.68235c1.40866,-0.2169 2.11275,-0.5094 2.11275,-0.87799c0.05434,-0.20556 -0.08648,-0.34638 -0.42246,-0.42246c-0.14082,-0.03261 -0.2788,-0.05671 -0.41442,-0.07324c-0.13515,-0.01607 -0.23533,-0.03497 -0.30054,-0.05671c-0.2169,0.01087 -0.54721,0.05434 -0.9914,0.12995c-1.96106,0.33598 -3.5266,0.83451 -4.6971,1.49513c-1.06181,0.60675 -1.59248,1.2839 -1.59248,2.03147c0,0.19516 0.16775,0.41206 0.50373,0.65022c0.18429,0.14082 0.37378,0.23296 0.56894,0.27644l6.74463,1.51167c0.03261,0.05387 0.04867,0.12711 0.04867,0.21926c0,0.09215 -0.05434,0.20839 -0.16256,0.34921c-0.32511,0.45506 -0.96446,0.89925 -1.91759,1.33305c-1.34344,0.62801 -2.51914,0.94225 -3.52707,0.94225c-1.27839,0 -1.94468,-0.49286 -1.99886,-1.47859c-0.03261,0.03213 -0.09498,0.07844 -0.18713,0.13798c-0.09215,0.05954 -0.2221,0.16775 -0.38985,0.32511c-0.16775,0.15688 -0.25187,0.28589 -0.25187,0.38607zM268.86212,342.63445v0.15027c0,0.20036 0.12428,0.39268 0.37378,0.57698c0.24903,0.18429 0.62281,0.37378 1.12135,0.56894c0.49838,0.195 1.02385,0.29251 1.57641,0.29251c0.66109,0 1.54947,-0.16823 2.66563,-0.50421c1.34344,-0.41159 2.39438,-0.91532 3.15282,-1.5112c0.67196,-0.53114 1.00747,-1.08355 1.00747,-1.65769c0,-0.20603 -0.05387,-0.42813 -0.16256,-0.66629c-1.95019,-0.56375 -3.59701,-1.02968 -4.94046,-1.39779c-0.55288,-0.15169 -1.00227,-0.2736 -1.34912,-0.36575c-0.34653,-0.0923 -0.64455,-0.1709 -0.89405,-0.2358c-0.24903,-0.06474 -0.37378,-0.12475 -0.37378,-0.17862c0.01087,-0.27077 0.11672,-0.50373 0.31708,-0.69889c0.20036,-0.195 0.52547,-0.38465 0.97533,-0.56894c0.44939,-0.18429 1.58444,-0.41159 3.40469,-0.68235c1.40866,-0.2169 2.11275,-0.5094 2.11275,-0.87799c0.05434,-0.20556 -0.08648,-0.34638 -0.42246,-0.42246c-0.14082,-0.03261 -0.2788,-0.05671 -0.41442,-0.07324c-0.13562,-0.01607 -0.2358,-0.03497 -0.30054,-0.05671c-0.2169,0.01087 -0.54721,0.05434 -0.9914,0.12995c-1.96106,0.33598 -3.52707,0.83451 -4.6971,1.49513c-1.06181,0.60675 -1.59295,1.2839 -1.59295,2.03147c0,0.19516 0.16823,0.41206 0.50421,0.65022c0.18382,0.14082 0.37378,0.23296 0.56847,0.27644l6.7451,1.51167c0.03261,0.05387 0.04867,0.12711 0.04867,0.21926c0,0.09215 -0.05434,0.20839 -0.16256,0.34921c-0.32511,0.45506 -0.96446,0.89925 -1.91759,1.33305c-1.34392,0.62801 -2.51914,0.94225 -3.52707,0.94225c-1.27823,0 -1.94499,-0.49286 -1.99886,-1.47859c-0.03261,0.03213 -0.09498,0.07844 -0.18713,0.13798c-0.09215,0.05954 -0.2221,0.16775 -0.38985,0.32511c-0.16823,0.15688 -0.25187,0.28589 -0.25187,0.38607zM395.0519,342.78472v-0.15027c0,-0.10018 0.08411,-0.22918 0.25187,-0.38607c0.16823,-0.15736 0.29818,-0.26557 0.39032,-0.32511c0.09215,-0.05954 0.15452,-0.10585 0.18666,-0.13798c0.05434,0.98573 0.72063,1.47859 1.99934,1.47859c1.00747,0 2.18316,-0.31424 3.5266,-0.94225c0.9536,-0.4338 1.59295,-0.87799 1.91806,-1.33305c0.10821,-0.14082 0.16256,-0.25706 0.16256,-0.34921c0,-0.09215 -0.01654,-0.16539 -0.04914,-0.21926l-6.74463,-1.51167c-0.19516,-0.04347 -0.38465,-0.13562 -0.56894,-0.27644c-0.33598,-0.23816 -0.50373,-0.45506 -0.50373,-0.65022c0,-0.74757 0.53098,-1.42472 1.59295,-2.03147c1.17002,-0.66062 2.73556,-1.15915 4.69662,-1.49513c0.44419,-0.07561 0.77497,-0.11908 0.9914,-0.12995c0.06521,0.02174 0.16539,0.04064 0.30101,0.05671c0.13546,0.01638 0.2736,0.0408 0.41442,0.07324c0.33598,0.07608 0.4768,0.2169 0.42246,0.42246c0,0.36858 -0.70409,0.66109 -2.11275,0.87799c-1.82024,0.27077 -2.9553,0.49806 -3.40516,0.68235c-0.44939,0.18429 -0.7745,0.37378 -0.97486,0.56894c-0.20083,0.19516 -0.30621,0.42813 -0.31708,0.69889c0,0.05387 0.12475,0.11388 0.37378,0.17862c0.24903,0.06521 0.54721,0.14365 0.89405,0.2358c0.34638,0.09215 0.79624,0.21406 1.34864,0.36575c1.34392,0.36811 2.99074,0.83404 4.94093,1.39779c0.10821,0.23816 0.16256,0.46026 0.16256,0.66629c0,0.57414 -0.33598,1.12655 -1.00747,1.65769c-0.75843,0.59588 -1.80985,1.09961 -3.15329,1.5112c-1.11584,0.33614 -2.00422,0.50421 -2.66515,0.50421c-0.55256,0 -1.07803,-0.0975 -1.57641,-0.29251c-0.49853,-0.19516 -0.87232,-0.38465 -1.12182,-0.56894c-0.24903,-0.18429 -0.37378,-0.37662 -0.37378,-0.57698zM160.69051,341.47624c-0.26004,-0.58501 -0.39004,-1.27304 -0.39004,-2.06408c0,-0.79104 0.1273,-1.4923 0.38191,-2.10471c0.25465,-0.61195 0.60405,-1.14025 1.04829,-1.58444c0.94268,-0.92099 2.12366,-1.38172 3.54305,-1.38172c1.48442,0 2.70878,0.34133 3.67309,1.024c1.08351,0.78001 1.62527,1.89601 1.62527,3.34798c0,1.79851 -0.41447,3.12588 -1.24336,3.98214c-0.82888,0.85594 -2.12094,1.2839 -3.87619,1.2839c-2.43789,0 -4.02523,-0.83436 -4.76202,-2.50307zM223.08953,334.74767l-1.05661,-0.01607c-2.44873,0 -3.85738,0.28164 -4.2255,0.84491c-0.10821,0.15169 -0.16256,0.34401 -0.16256,0.57698c0,0.23296 0.01087,0.43616 0.03261,0.60958c0.05387,0.44419 0.17862,0.76363 0.37378,0.95879c0.03261,0.01087 0.08931,0.01654 0.17059,0.01654c0.08128,0 0.23296,-0.02174 0.45506,-0.06521c0.2221,-0.04347 0.5198,-0.12192 0.89405,-0.2358c0.37378,-0.11341 0.77167,-0.25187 1.19412,-0.41442c0.42293,-0.16256 0.82932,-0.33031 1.21917,-0.50373c1.22436,-0.5524 1.83631,-1.00227 1.83631,-1.34912c0,-0.19469 -0.24336,-0.33551 -0.73103,-0.42246zM339.76652,344.22314c0.2599,0 0.38985,-0.09215 0.38985,-0.27644v-8.92259c0,-0.18429 -0.10301,-0.27644 -0.30857,-0.27644c-0.20603,0 -0.46593,0.09215 -0.78017,0.27644c0,0.07592 -0.03261,0.77482 -0.09782,2.09668c-0.02174,0.60675 -0.043,1.2702 -0.06474,1.99083c-0.02174,0.72063 -0.03261,1.63311 -0.03261,2.7384c0,1.10512 0.06505,1.80402 0.19516,2.09668c0.27077,0.18429 0.50373,0.27644 0.69889,0.27644zM362.98595,344.22314c0.2599,0 0.38985,-0.09215 0.38985,-0.27644v-8.92259c0,-0.18429 -0.10301,-0.27644 -0.30857,-0.27644c-0.20603,0 -0.46593,0.09215 -0.78017,0.27644c0,0.07561 -0.03261,0.7745 -0.09782,2.09668c-0.02126,0.60675 -0.043,1.2702 -0.06474,1.99083c-0.02174,0.72063 -0.03261,1.63311 -0.03261,2.7384c0,1.10528 0.06521,1.80418 0.19516,2.09668c0.27077,0.18429 0.50373,0.27644 0.69889,0.27644zM375.61944,336.22674l-1.44646,-0.03261c-0.37945,0 -0.81798,0.0378 -1.31651,0.11388c-0.02174,0.42246 -0.06521,0.96966 -0.12995,1.64162c-0.22745,2.38352 -0.34118,3.93016 -0.34118,4.63992c0,0.70976 0.01087,1.21066 0.03213,1.50317l-1.52774,0.11388l0.50421,-8.02854l-3.46186,-0.19516c-0.08695,0 -0.15452,-0.07041 -0.20319,-0.21123c-0.04867,-0.14082 -0.07324,-0.27077 -0.07324,-0.38985c0,-0.11955 0.04867,-0.2495 0.14649,-0.39032c0.09734,-0.14082 0.21107,-0.21123 0.34118,-0.21123c0.79104,0.03261 1.58728,0.08648 2.38919,0.16256c1.48426,0.12995 2.74643,0.19516 3.7865,0.19516l1.00794,-0.03261c0.79104,-0.02174 1.57641,-0.10821 2.35658,-0.2599c0.17342,0.03213 0.28164,0.30337 0.32511,0.8123c0.01087,0.10821 0.01607,0.19516 0.01607,0.26037c-0.71512,0.20571 -1.51687,0.30857 -2.40525,0.30857zM161.63319,339.08705c0,2.5571 1.28937,3.83565 3.86811,3.83565c1.2677,0 2.29699,-0.37898 3.08794,-1.13742c0.79099,-0.74804 1.18647,-1.72857 1.18647,-2.94206c0,-1.13742 -0.47132,-2.00454 -1.414,-2.60041c-0.80177,-0.5198 -1.81486,-0.78017 -3.03922,-0.78017c-0.97514,0 -1.83655,0.35252 -2.58416,1.05661c-0.73674,0.70409 -1.10514,1.56034 -1.10514,2.56781z" data-paper-data="{&quot;isContainerAroundSecondaryText&quot;:true}"></path></g><g data-paper-data="{&quot;isPrimaryText&quot;:true}" fill="#00af66" fill-rule="nonzero"><path d="M156.83996,275.68012l-2.1436,6.4872h-9.64619v-6.4872h11.78978zM164.45537,308.11613v6.43079h-19.40519l12.63594,-38.8668h6.76925v0.11282l-10.49234,32.32319z" data-paper-data="{&quot;glyphName&quot;:&quot;Z&quot;,&quot;glyphIndex&quot;:0,&quot;firstGlyphOfWord&quot;:true,&quot;word&quot;:1}"></path><path d="M174.77848,302.41867v12.12825h-6.43079v-12.12825zM187.75289,285.43913v29.10779h-6.4872v-12.91799h-6.4872h-6.43079h-1.6359v-6.4872h1.6359v-9.7026c0,-1.35385 0.25385,-2.61368 0.76154,-3.7795c0.50769,-1.16582 1.19402,-2.19061 2.05898,-3.07437c0.86496,-0.88376 1.88975,-1.57949 3.07437,-2.08719c1.18462,-0.50769 2.43505,-0.76154 3.75129,-0.76154c1.35385,0 2.62309,0.25385 3.80771,0.76154c1.18462,0.50769 2.21881,1.20342 3.10257,2.08719c0.88376,0.88376 1.57949,1.90855 2.08719,3.07437c0.50769,1.16582 0.76154,2.42565 0.76154,3.7795zM181.26568,295.14173v-9.7026c0,-0.90257 -0.31966,-1.66411 -0.95898,-2.28462c-0.63932,-0.62051 -1.41026,-0.93077 -2.31283,-0.93077c-0.86496,0 -1.6171,0.31026 -2.25642,0.93077c-0.63932,0.62051 -0.95898,1.38206 -0.95898,2.28462v9.7026z" data-paper-data="{&quot;glyphName&quot;:&quot;A&quot;,&quot;glyphIndex&quot;:1,&quot;word&quot;:1}"></path><path d="M211.27604,287.01862v4.8513c0,1.35385 -0.25385,2.61368 -0.76154,3.7795c-0.50769,1.16582 -1.20342,2.19061 -2.08719,3.07437c-0.88376,0.88376 -1.91796,1.57949 -3.10257,2.08719c-1.18462,0.50769 -2.45385,0.76154 -3.80771,0.76154h-3.2154h-6.4872h-1.6359v-6.43079h1.6359v-4.90771v-4.8513v-9.7026h9.7026c1.35385,0 2.62309,0.25385 3.80771,0.76154c1.18462,0.50769 2.21881,1.20342 3.10257,2.08719c0.88376,0.88376 1.57949,1.90855 2.08719,3.07437c0.50769,1.16582 0.76154,2.42565 0.76154,3.7795zM204.78884,291.86992v-4.8513v-1.6359c0,-0.90257 -0.31966,-1.66411 -0.95898,-2.28462c-0.63932,-0.62051 -1.41026,-0.93077 -2.31283,-0.93077h-3.2154v3.2154v5.4154v2.7077v1.6359h3.2154c0.90257,0 1.67351,-0.31966 2.31283,-0.95898c0.63932,-0.63932 0.95898,-1.41026 0.95898,-2.31283zM198.30164,313.98281v0.5641h-1.6359h-4.8513v-6.4872v-5.64104h6.4872v4.00514v1.6359z" data-paper-data="{&quot;glyphName&quot;:&quot;P&quot;,&quot;glyphIndex&quot;:2,&quot;lastGlyphOfWord&quot;:true,&quot;word&quot;:1}"></path><path d="M246.64539,308.05972v6.4872h-15.62569v-38.92321h6.4872v32.43601z" data-paper-data="{&quot;glyphName&quot;:&quot;L&quot;,&quot;glyphIndex&quot;:3,&quot;firstGlyphOfWord&quot;:true,&quot;word&quot;:2}"></path><path d="M256.68645,302.41867v12.12825h-6.43079v-12.12825zM269.66086,285.43913v29.10779h-6.4872v-12.91799h-6.4872h-6.43079h-1.6359v-6.4872h1.6359v-9.7026c0,-1.35385 0.25385,-2.61368 0.76154,-3.7795c0.50769,-1.16582 1.19402,-2.19061 2.05898,-3.07437c0.86496,-0.88376 1.88975,-1.57949 3.07437,-2.08719c1.18462,-0.50769 2.43505,-0.76154 3.75129,-0.76154c1.35385,0 2.62309,0.25385 3.80771,0.76154c1.18462,0.50769 2.21881,1.20342 3.10257,2.08719c0.88376,0.88376 1.57949,1.90855 2.08719,3.07437c0.50769,1.16582 0.76154,2.42565 0.76154,3.7795zM263.17365,295.14173v-9.7026c0,-0.90257 -0.31966,-1.66411 -0.95898,-2.28462c-0.63932,-0.62051 -1.41026,-0.93077 -2.31283,-0.93077c-0.86496,0 -1.6171,0.31026 -2.25642,0.93077c-0.63932,0.62051 -0.95898,1.38206 -0.95898,2.28462v9.7026z" data-paper-data="{&quot;glyphName&quot;:&quot;A&quot;,&quot;glyphIndex&quot;:4,&quot;word&quot;:2}"></path><path d="M292.45068,299.99302v4.8513c0,1.35385 -0.25385,2.61368 -0.76154,3.7795c-0.50769,1.16582 -1.20342,2.19061 -2.08719,3.07437c-0.88376,0.88376 -1.91796,1.57949 -3.10257,2.08719c-1.18462,0.50769 -2.45385,0.76154 -3.80771,0.76154c-1.35385,0 -2.61368,-0.25385 -3.7795,-0.76154c-1.16582,-0.50769 -2.19061,-1.20342 -3.07437,-2.08719c-0.88376,-0.88376 -1.57949,-1.90855 -2.08719,-3.07437c-0.50769,-1.16582 -0.76154,-2.42565 -0.76154,-3.7795v-1.6359v-3.2154v-3.27181v-11.3385v-9.7026h6.4872v9.7026v5.69746v5.64104v6.4872v1.6359c0,0.90257 0.31966,1.66411 0.95898,2.28462c0.63932,0.62051 1.39146,0.93077 2.25642,0.93077c0.90257,0 1.67351,-0.31026 2.31283,-0.93077c0.63932,-0.62051 0.95898,-1.38206 0.95898,-2.28462v-1.6359v-1.6359v-1.57949v-11.3385v-3.27181v-9.7026h6.4872v9.7026v3.27181z" data-paper-data="{&quot;glyphName&quot;:&quot;U&quot;,&quot;glyphIndex&quot;:5,&quot;word&quot;:2}"></path><path d="M315.52255,285.43913v29.10779h-6.4872l-10.7744,-32.3796h-2.1436h-1.6359v-6.43079h1.6359h6.4872l6.43079,19.40519v-9.7026v-9.7026h6.4872v9.7026zM302.60456,304.05458v10.49234h-6.4872v-6.43079v-4.06155v-7.27695v-11.3385v-2.42565h1.57949l4.90771,14.66672z" data-paper-data="{&quot;glyphName&quot;:&quot;N&quot;,&quot;glyphIndex&quot;:6,&quot;word&quot;:2}"></path><path d="M338.19955,299.99302v4.8513c0,1.35385 -0.25385,2.61368 -0.76154,3.7795c-0.50769,1.16582 -1.20342,2.19061 -2.08719,3.07437c-0.88376,0.88376 -1.90855,1.57949 -3.07437,2.08719c-1.16582,0.50769 -2.40685,0.76154 -3.72309,0.76154c-1.35385,0 -2.62309,-0.25385 -3.80771,-0.76154c-1.18462,-0.50769 -2.21881,-1.20342 -3.10257,-2.08719c-0.88376,-0.88376 -1.57949,-1.90855 -2.08719,-3.07437c-0.50769,-1.16582 -0.76154,-2.42565 -0.76154,-3.7795v-19.40519c0,-1.35385 0.25385,-2.62309 0.76154,-3.80771c0.50769,-1.18462 1.20342,-2.21881 2.08719,-3.10257c0.88376,-0.88376 1.91796,-1.57949 3.10257,-2.08719c1.18462,-0.50769 2.45385,-0.76154 3.80771,-0.76154c1.31624,0 2.55727,0.25385 3.72309,0.76154c1.16582,0.50769 2.19061,1.20342 3.07437,2.08719c0.88376,0.88376 1.57949,1.91796 2.08719,3.10257c0.50769,1.18462 0.76154,2.45385 0.76154,3.80771v3.2154h-6.43079v-3.2154c0,-0.90257 -0.31966,-1.67351 -0.95898,-2.31283c-0.63932,-0.63932 -1.39146,-0.95898 -2.25642,-0.95898c-0.90257,0 -1.67351,0.31966 -2.31283,0.95898c-0.63932,0.63932 -0.95898,1.41026 -0.95898,2.31283v19.40519c0,0.90257 0.31966,1.66411 0.95898,2.28462c0.63932,0.62051 1.41026,0.93077 2.31283,0.93077c0.86496,0 1.6171,-0.31026 2.25642,-0.93077c0.63932,-0.62051 0.95898,-1.38206 0.95898,-2.28462v-4.8513z" data-paper-data="{&quot;glyphName&quot;:&quot;C&quot;,&quot;glyphIndex&quot;:7,&quot;word&quot;:2}"></path><path d="M361.04578,285.43913v29.10779h-6.4872v-12.91799h-6.4872h-6.4872h-1.6359v-6.4872h1.6359v-9.7026v-9.75901h6.4872v9.75901v9.7026h6.4872v-9.7026v-9.75901h6.4872v9.75901zM348.07138,302.41867v12.12825h-6.4872v-12.12825z" data-paper-data="{&quot;glyphName&quot;:&quot;H&quot;,&quot;glyphIndex&quot;:8,&quot;word&quot;:2}"></path><path d="M381.63559,275.68012v6.4872h-10.09747v12.9744h9.98465v6.43079h-9.98465h-6.4872h-1.57949v-6.43079h1.57949v-19.4616h6.4872h10.09747zM381.63559,308.05972v6.4872h-10.09747h-1.57949h-4.90771v-12.12825h6.4872v5.64104z" data-paper-data="{&quot;glyphName&quot;:&quot;E&quot;,&quot;glyphIndex&quot;:9,&quot;word&quot;:2}"></path><path d="M391.95871,313.98281v0.5641h-1.57949h-4.8513v-6.4872v-5.64104h6.43079v5.64104v4.8513zM391.95871,295.14173h3.27181c0.90257,0 1.66411,-0.31966 2.28462,-0.95898c0.62051,-0.63932 0.93077,-1.41026 0.93077,-2.31283v-6.43079c0,-0.90257 -0.31026,-1.67351 -0.93077,-2.31283c-0.62051,-0.63932 -1.38206,-0.95898 -2.28462,-0.95898h-3.27181v11.3385zM402.45105,298.35712c0.86496,1.16582 1.51368,2.44445 1.94616,3.83591c0.43248,1.39146 0.61111,2.82052 0.5359,4.28719v4.8513v3.2154h-6.4872v-3.2154v-4.8513l-0.05641,-0.90257l-0.16923,-0.90257l-0.28205,-0.84616l-0.16923,-0.45128l-0.22564,-0.33846l-0.28205,-0.33846l-0.28205,-0.28205l-0.22564,-0.28205l-0.33846,-0.16923l-0.28205,-0.16923l-0.33846,-0.11282l-0.28205,-0.05641h-0.28205h-3.27181h-6.43079h-1.6359v-6.4872h1.6359v-19.4616h9.7026c1.35385,0 2.61368,0.25385 3.7795,0.76154c1.16582,0.50769 2.19061,1.20342 3.07437,2.08719c0.88376,0.88376 1.57949,1.91796 2.08719,3.10257c0.50769,1.18462 0.76154,2.45385 0.76154,3.80771v6.43079c0,1.20342 -0.21624,2.36924 -0.64872,3.49745c-0.43248,1.12821 -1.04359,2.12479 -1.83334,2.98975z" data-paper-data="{&quot;glyphName&quot;:&quot;R&quot;,&quot;glyphIndex&quot;:10,&quot;lastGlyphOfWord&quot;:true,&quot;word&quot;:2}"></path></g><g data-paper-data="{&quot;fillRule&quot;:&quot;evenodd&quot;,&quot;fillRuleOriginal&quot;:&quot;evenodd&quot;,&quot;isIcon&quot;:true,&quot;iconStyle&quot;:&quot;standalone&quot;,&quot;selectedEffects&quot;:{&quot;container&quot;:&quot;&quot;,&quot;transformation&quot;:&quot;&quot;,&quot;pattern&quot;:&quot;&quot;},&quot;bounds&quot;:{&quot;x&quot;:208.9582672268334,&quot;y&quot;:115,&quot;width&quot;:132.0834655463333,&quot;height&quot;:134.5960727063038},&quot;iconType&quot;:&quot;icon&quot;,&quot;rawIconId&quot;:&quot;4795784&quot;,&quot;combineTerms&quot;:&quot;whatsapp&quot;,&quot;isDetailed&quot;:false,&quot;suitableAsStandaloneIcon&quot;:true}" fill-rule="evenodd"><g data-paper-data="{&quot;isPathIcon&quot;:true}"><path d="M290.82881,116.91537c23.43296,5.79599 42.07792,24.44095 48.12591,47.62191c6.04699,23.18096 -1.26,48.88191 -19.14996,65.25987c-19.14896,17.63697 -46.86591,22.17296 -70.80186,12.34598c-8.81898,2.52 -17.88997,4.78699 -26.70895,7.30699c-2.77199,0.756 -6.80299,-1.512 -6.29899,-4.78699c1.26,-9.07098 2.268,-18.14197 3.52699,-27.21295c-16.12497,-25.19595 -13.60597,-58.45589 6.29999,-80.62885c16.12497,-18.14197 41.57392,-25.70095 65.00688,-19.90596zM229.09693,219.97017c-0.756,6.04699 -1.512,11.84198 -2.268,17.88897c7.05599,-2.015 14.11097,-3.77899 21.16596,-5.79499c1.511,-0.252 2.77099,0 3.77899,0.504h0.252c24.44095,11.08698 54.1729,2.77199 69.29087,-19.40096c12.34598,-18.39396 13.10197,-42.58292 1.512,-61.47988c-11.33898,-18.39396 -33.25994,-28.97594 -55.18089,-25.95295c-21.16496,2.52 -39.81092,17.88997 -46.36191,38.29893c-3.77899,11.59098 -3.52699,24.44095 0.504,36.03093c1.26,3.27599 2.77199,6.55199 4.53599,9.57498c0.755,1.512 1.763,2.77199 2.519,4.03199c0.879,1.757 0.609,3.70599 0.358,5.51299c-0.037,0.265 -0.074,0.528 -0.106,0.786z" fill="#00af66"></path><path d="M298.6398,180.66325l11.33798,8.81898c2.52,1.764 4.03199,4.53499 4.03199,7.55899c0.252,3.02299 -1.008,6.04699 -3.02399,8.06298l-9.82598,9.82598c-3.27599,3.52799 -8.06298,5.29199 -12.59898,5.29199c-2.77099,0 -5.54299,-0.504 -8.31498,-2.016c-8.81798,-4.78699 -17.13297,-10.83398 -24.18795,-17.88997c-7.05499,-7.05499 -13.10297,-15.11797 -17.88997,-24.18795c-3.52799,-7.05499 -2.268,-15.62197 3.27599,-21.16596l9.82598,-9.82598c2.016,-2.016 5.03999,-3.27599 8.06298,-3.02399c3.02399,0 5.79499,1.512 7.55899,4.03199l8.81898,11.58998c2.52,3.52799 2.268,8.31498 -0.756,11.33898l-3.27499,3.27499c1.511,2.52 3.27499,5.03899 5.29099,7.05499c2.268,2.016 4.53499,3.77999 7.05499,5.29199l3.27499,-3.27599c3.02399,-3.02399 7.81099,-3.52799 11.33898,-0.756zM248.24689,162.01828c-2.52,2.519 -3.02399,6.29899 -1.512,9.32198c4.28299,8.06298 9.57498,15.36997 16.12597,21.92096c6.55099,6.55099 13.85797,11.84298 21.92096,16.12597c3.02299,1.512 6.80299,1.008 9.32298,-1.512l9.82598,-9.82598v-0.504c0,-0.252 -0.252,-0.252 -0.252,-0.252l-10.32998,-8.06298l-3.52799,3.52699c-2.52,2.52 -6.29899,3.27599 -9.57498,1.512c-4.03099,-2.015 -7.55899,-4.78699 -10.58198,-7.81099c-3.02399,-3.02299 -5.79499,-6.55099 -7.81099,-10.58198c-1.764,-3.27599 -1.008,-7.30699 1.512,-9.82698l3.27499,-3.02399l-8.06298,-10.58198c0,-0.252 0,-0.252 -0.252,-0.252h-0.252z" fill="#f6be00"></path></g></g></g></g></svg>